<svg width="35" height="35" fill="none" xmlns="http://www.w3.org/2000/svg"><g clip-path="url(#clip0_362_72)"><path d="M17.504 0h-.008C7.846 0 0 7.849 0 17.5a17.37 17.37 0 003.332 10.257L1.15 34.258l6.726-2.15A17.348 17.348 0 0017.504 35C27.154 35 35 27.15 35 17.5S27.153 0 17.504 0z" fill="#fff"/><path d="M27.687 24.712c-.422 1.192-2.098 2.181-3.434 2.47-.915.194-2.109.35-6.13-1.317-5.142-2.13-8.454-7.357-8.712-7.696-.248-.339-2.078-2.767-2.078-5.278 0-2.511 1.275-3.734 1.789-4.26.422-.43 1.12-.627 1.79-.627.216 0 .41.01.585.02.515.021.773.052 1.112.864.422 1.017 1.45 3.528 1.573 3.786.124.258.249.608.074.947-.164.35-.309.506-.567.803-.258.298-.503.525-.76.845-.237.277-.504.575-.207 1.089.298.503 1.326 2.18 2.84 3.528 1.953 1.74 3.537 2.295 4.104 2.531.422.175.925.134 1.233-.194.392-.422.875-1.122 1.368-1.812.35-.494.791-.555 1.255-.38.473.164 2.973 1.4 3.487 1.656.514.258.853.38.978.597.122.216.122 1.234-.3 2.428z" fill="#2A2367"/></g><defs><clipPath id="clip0_362_72"><path fill="#fff" d="M0 0h35v35H0z"/></clipPath></defs></svg>