<svg width="35" height="35" fill="none" xmlns="http://www.w3.org/2000/svg"><g clip-path="url(#clip0_362_69)"><path d="M17.5 35C27.165 35 35 27.165 35 17.5S27.165 0 17.5 0 0 7.835 0 17.5 7.835 35 17.5 35z" fill="#fff"/><path d="M8.008 17.12l16.873-6.505c.783-.283 1.467.19 1.213 1.375l.001-.002-2.873 13.535c-.213.96-.783 1.193-1.58.741l-4.375-3.224-2.11 2.033c-.234.233-.43.43-.883.43l.31-4.452 8.109-7.326c.353-.31-.079-.485-.544-.176l-10.02 6.309-4.32-1.348c-.937-.297-.958-.938.199-1.39z" fill="#2A2367"/></g><defs><clipPath id="clip0_362_69"><path fill="#fff" d="M0 0h35v35H0z"/></clipPath></defs></svg>