<svg width="23" height="23" fill="none" xmlns="http://www.w3.org/2000/svg"><g clip-path="url(#clip0_497_6866)"><path d="M11.5 23C17.851 23 23 17.851 23 11.5S17.851 0 11.5 0 0 5.149 0 11.5 5.149 23 11.5 23z" fill="#2197D5"/><path d="M5.262 11.25L16.35 6.977c.515-.186.964.125.798.903l-1.887 8.894c-.14.63-.515.784-1.04.487l-2.874-2.12-1.387 1.337c-.153.153-.283.282-.58.282l.204-2.925 5.329-4.814c.232-.204-.052-.32-.358-.116L7.971 13.05l-2.839-.886c-.616-.195-.63-.616.13-.913z" fill="#fff"/></g><defs><clipPath id="clip0_497_6866"><path fill="#fff" d="M0 0h23v23H0z"/></clipPath></defs></svg>