<svg width="23" height="23" fill="none" xmlns="http://www.w3.org/2000/svg"><g clip-path="url(#clip0_497_6869)"><path d="M11.503 0h-.006C5.157 0 0 5.158 0 11.5c0 2.516.81 4.847 2.19 6.74L.755 22.513l4.42-1.413a11.4 11.4 0 006.327 1.9C17.843 23 23 17.84 23 11.5S17.844 0 11.503 0z" fill="#15BB35"/><path d="M18.194 16.24c-.277.783-1.378 1.433-2.257 1.622-.6.128-1.385.23-4.027-.865-3.38-1.4-5.556-4.834-5.726-5.057-.162-.223-1.366-1.819-1.366-3.469s.838-2.454 1.176-2.799c.278-.283.736-.412 1.176-.412.142 0 .27.007.385.013.338.014.508.034.73.568.278.668.954 2.318 1.034 2.488.082.17.164.4.049.622-.108.23-.203.332-.372.528-.17.195-.33.345-.5.555-.156.182-.331.378-.136.716.196.33.871 1.433 1.866 2.318 1.284 1.143 2.325 1.508 2.697 1.664.277.115.608.087.81-.128.258-.278.576-.738.9-1.19.23-.326.52-.366.824-.25.31.107 1.954.92 2.292 1.087.338.17.56.25.642.393.08.142.08.81-.197 1.595z" fill="#FAFAFA"/></g><defs><clipPath id="clip0_497_6869"><path fill="#fff" d="M0 0h23v23H0z"/></clipPath></defs></svg>